<svg xmlns="http://www.w3.org/2000/svg" width="163" height="65"><path fill-rule="evenodd" fill="#00A6E7" d="M71.192 54.94l-5.067-32.035H59.53l.61 4.933c-.211 8.542-2.81 16.244-7.238 21.972l-3.611-26.905h-6.546c-2.174 23.57-9.716 29.447-20.467 32.214 12.602.572 19.177-6.326 22.638-15.172l2.28 15.399c-3.48 2.491-7.558 4.095-12.113 4.559C19.645 61.464 4.372 52.083.001 36.893c1.445 15.758 14.682 28.105 30.797 28.105 15.615 0 28.533-11.591 30.632-26.65l2.039 16.592h7.723zm88.426-33.219h-.586v1.291h.605c.339 0 .583-.048.73-.145.15-.102.222-.256.222-.474 0-.238-.075-.409-.23-.515-.154-.104-.402-.157-.741-.157zm.124-.48c.527 0 .922.088 1.185.268.264.184.395.449.395.805 0 .275-.075.505-.225.688-.151.184-.361.302-.636.363l.843 1.78h-.802l-.767-1.664h-.703v1.664h-.715v-3.904h1.425zm2.822 2.051a3.16 3.16 0 0 0-.215-1.167 2.78 2.78 0 0 0-.609-.961 2.87 2.87 0 0 0-.948-.662 2.795 2.795 0 0 0-1.125-.225c-.391 0-.763.07-1.11.218-.346.144-.65.354-.91.63a3.203 3.203 0 0 0-.654 1 2.9 2.9 0 0 0-.23 1.14 2.998 2.998 0 0 0 .854 2.092c.271.285.579.507.933.657.354.157.715.235 1.091.235.391 0 .764-.076 1.117-.227.35-.147.673-.366.963-.653.271-.272.478-.587.624-.944.144-.357.219-.731.219-1.133zm-2.908-3.474a3.22 3.22 0 0 1 2.377 1.024c.309.322.546.696.715 1.111.165.421.248.854.248 1.307 0 .472-.083.917-.248 1.327-.169.413-.41.779-.726 1.092a3.532 3.532 0 0 1-1.106.765 3.19 3.19 0 0 1-2.532 0 3.437 3.437 0 0 1-1.083-.771 3.445 3.445 0 0 1-.97-2.413c0-.453.086-.895.259-1.32a3.72 3.72 0 0 1 .749-1.147 3.092 3.092 0 0 1 1.045-.729 3.277 3.277 0 0 1 1.272-.246zm-2.994 18.879c-.482-5.333-4.503-7.448-9.408-7.272-3.77.144-7.945 2.168-9.409 7.146l2.57.79c2.197-5.724 11.187-5.453 11.379.444v.926c-1.08-.603-2.671-.924-4.996-.852-5.665 0-9.024 3.482-9.257 7.774-.233 4.296 2.678 7.774 8.419 7.774 2.719 0 4.593-.781 5.834-2.049v1.679h4.868v-16.36zm-8.697 4.886c1.493 0 2.843.206 3.829.906v5.784c-.918.665-2.268 1.123-4.187 1.231-3.02 0-5.116-1.775-5.116-3.959 0-2.188 2.453-3.962 5.474-3.962zm-25.294-12.112c6.319 0 11.447 4.893 11.447 12.09 0 .457-.023.908-.072 1.354h-16.815c1.038 3.768 3.739 5.501 8.254 5.347 3.092-.122 4.754-1.449 5.619-2.83h2.585c-.922 4.463-3.946 7.854-10.089 7.92-7.682 0-12.38-5.115-12.38-11.791s5.127-12.09 11.451-12.09zm.319 4.559c3.145 0 4.687 1.979 5.478 4.74h-10.951c.79-2.761 2.332-4.74 5.473-4.74zM5.433 42.574s-6.828-10.115-.978-23.77C8.183 10.101 14.83 3.655 23.922 1.113c15.077-4.218 31.275 3.818 36.647 19.193 0 0-8.555-15.031-28.01-13.916C14.495 7.428 1.942 24.414 5.433 42.574zm91.635-6.458c1.878 0 3.567.864 4.763 2.245v9.849c-1.196 1.378-2.885 2.242-4.763 2.242-3.615 0-6.549-3.207-6.549-7.169 0-3.955 2.934-7.167 6.549-7.167zm4.763-13.364h5.751V54.94h-5.751v-2.184c-1.971 1.788-4.45 2.866-7.087 2.866-5.933 0-10.432-5.438-10.048-12.143.38-6.707 4.838-12.143 11.428-12.143 2.144 0 4.1.711 5.707 1.936v-10.52zm-27.054 8.584h5.653V54.94h-5.653V31.336zm0-8.584h5.653v5.853h-5.653v-5.853z"/></svg>